<svg width="400" height="400" viewBox="0 0 400 400" fill="none" xmlns="http://www.w3.org/2000/svg">
<path d="M201.113 121C197.601 130.015 198.773 138.372 199.114 147.889C199.556 160.246 199.931 172.526 200.829 184.862" stroke="black" stroke-width="3.72796" stroke-linecap="round"/>
<path d="M200.103 206.991C197.532 219.372 198.688 231.44 199.759 243.957C200.776 255.845 202.203 267.688 203.607 279.534" stroke="black" stroke-width="3.72796" stroke-linecap="round"/>
<path d="M122 209.895C129.888 206.386 137.324 206.243 145.814 205.667C158.658 204.795 171.033 203.136 183.655 200.677" stroke="black" stroke-width="3.72796" stroke-linecap="round"/>
<path d="M212.226 197.047C234.037 195.65 255.504 192.029 277.133 189.029" stroke="black" stroke-width="3.72796" stroke-linecap="round"/>
<path d="M216.294 186.397L223.285 173.714" stroke="black" stroke-width="3.72796" stroke-linecap="round"/>
<path d="M184.286 217.104L175.797 225.493" stroke="black" stroke-width="3.72796" stroke-linecap="round"/>
<path d="M222.735 213.809L231.174 219.501" stroke="black" stroke-width="3.72796" stroke-linecap="round"/>
<path d="M181.49 178.957C172.346 176.19 164.21 172.125 155.524 168.222" stroke="black" stroke-width="3.72796" stroke-linecap="round"/>
</svg>
